<svg width="101" height="101" viewBox="0 0 101 101" fill="none" xmlns="http://www.w3.org/2000/svg">
<circle cx="50.5" cy="50.5" r="50.5" fill="#364CE7"/>
<path d="M67.92 60.624C67.92 63.312 67.3013 65.7013 66.064 67.792C64.8267 69.84 63.0133 71.44 60.624 72.592C58.2347 73.744 55.3973 74.32 52.112 74.32C47.5467 74.32 43.6427 73.2533 40.4 71.12C37.1573 68.9867 35.024 66.1493 34 62.608L38.608 59.92C39.76 62.864 41.4667 65.1253 43.728 66.704C45.9893 68.2827 48.8053 69.072 52.176 69.072C55.248 69.072 57.6373 68.3893 59.344 67.024C61.0507 65.6587 61.904 63.76 61.904 61.328C61.904 59.3653 61.3707 57.7867 60.304 56.592C59.2373 55.3547 57.9147 54.3947 56.336 53.712C54.8 53.0293 52.6667 52.2827 49.936 51.472C46.9067 50.576 44.4533 49.7227 42.576 48.912C40.7413 48.1013 39.184 46.8853 37.904 45.264C36.624 43.6427 35.984 41.5093 35.984 38.864C35.984 36.176 36.6667 33.872 38.032 31.952C39.3973 29.9893 41.2747 28.5173 43.664 27.536C46.096 26.512 48.8053 26 51.792 26C55.9733 26 59.344 26.9173 61.904 28.752C64.5067 30.5867 66.256 32.912 67.152 35.728L62.544 38.416C61.5627 36.1547 60.1973 34.384 58.448 33.104C56.7413 31.824 54.4587 31.184 51.6 31.184C48.6987 31.184 46.3733 31.8453 44.624 33.168C42.8747 34.448 42 36.176 42 38.352C42 39.9733 42.4693 41.296 43.408 42.32C44.3893 43.344 45.6053 44.1547 47.056 44.752C48.5067 45.3493 50.4907 46.0107 53.008 46.736C56.208 47.6747 58.7893 48.592 60.752 49.488C62.7147 50.384 64.4 51.728 65.808 53.52C67.216 55.312 67.92 57.68 67.92 60.624Z" fill="white"/>
</svg>
