<svg width="344" height="78" viewBox="0 0 344 78" fill="none" xmlns="http://www.w3.org/2000/svg">
<path d="M34.5827 22.4656C35.1321 22.4656 35.6531 22.5674 36.1456 22.771C36.6382 22.97 37.0739 23.2825 37.4528 23.7088C37.8364 24.1303 38.1371 24.6726 38.355 25.3356C38.5729 25.9939 38.6818 26.7872 38.6818 27.7155V27.7297C38.6818 28.8806 38.516 29.8657 38.1845 30.685C37.853 31.5044 37.377 32.1343 36.7566 32.5747C36.1409 33.0104 35.4044 33.2283 34.5472 33.2283C33.9173 33.2283 33.349 33.1146 32.8422 32.8873C32.3402 32.6552 31.9234 32.3379 31.5919 31.9353C31.2651 31.528 31.0449 31.0639 30.9312 30.5429L30.917 30.4648H32.7143L32.7428 30.5358C32.8327 30.7726 32.9606 30.981 33.1264 31.161C33.2969 31.341 33.5005 31.4807 33.7373 31.5801C33.9789 31.6749 34.2488 31.7222 34.5472 31.7222C35.0871 31.7222 35.5276 31.5636 35.8686 31.2462C36.2143 30.9242 36.4724 30.4956 36.6429 29.9604C36.8181 29.4205 36.9176 28.8237 36.9413 28.1702C36.946 28.0991 36.9484 28.0304 36.9484 27.9641C36.9484 27.8931 36.9484 27.8244 36.9484 27.7581L36.6287 26.046C36.6287 25.6577 36.5387 25.3048 36.3587 24.9875C36.1788 24.6702 35.9349 24.4192 35.627 24.2345C35.3239 24.0498 34.9806 23.9574 34.5969 23.9574C34.2275 23.9574 33.8889 24.0474 33.581 24.2274C33.2732 24.4074 33.0269 24.6536 32.8422 24.9662C32.6575 25.2741 32.5652 25.6198 32.5652 26.0034V26.0176C32.5652 26.4154 32.6528 26.7683 32.828 27.0761C33.0032 27.3792 33.2424 27.6184 33.5455 27.7936C33.8486 27.9689 34.1944 28.0565 34.5827 28.0565C34.9711 28.0565 35.3192 27.9712 35.627 27.8007C35.9349 27.6303 36.1788 27.3934 36.3587 27.0903C36.5387 26.7872 36.6287 26.4439 36.6287 26.0602V26.046H37.0549V27.9357H36.8063C36.6832 28.2057 36.5008 28.4567 36.2593 28.6888C36.0178 28.9208 35.7194 29.1079 35.3642 29.25C35.0137 29.3921 34.6017 29.4631 34.1281 29.4631C33.4745 29.4631 32.8967 29.3163 32.3947 29.0227C31.8926 28.729 31.4972 28.3265 31.2083 27.815C30.9241 27.3035 30.782 26.7257 30.782 26.0816V26.0673C30.782 25.3711 30.9431 24.7531 31.2651 24.2132C31.5919 23.6685 32.0418 23.2423 32.6149 22.9344C33.1927 22.6219 33.8486 22.4656 34.5827 22.4656ZM41.9071 31.5943C41.585 31.5943 41.315 31.4878 41.0972 31.2747C40.8841 31.0568 40.7775 30.7916 40.7775 30.479C40.7775 30.1617 40.8841 29.8965 41.0972 29.6833C41.315 29.4655 41.585 29.3565 41.9071 29.3565C42.2338 29.3565 42.5038 29.4655 42.7169 29.6833C42.93 29.8965 43.0366 30.1617 43.0366 30.479C43.0366 30.7916 42.93 31.0568 42.7169 31.2747C42.5038 31.4878 42.2338 31.5943 41.9071 31.5943ZM41.9071 26.3231C41.585 26.3231 41.315 26.2165 41.0972 26.0034C40.8841 25.7856 40.7775 25.5203 40.7775 25.2078C40.7775 24.8904 40.8841 24.6252 41.0972 24.4121C41.315 24.1942 41.585 24.0853 41.9071 24.0853C42.2338 24.0853 42.5038 24.1942 42.7169 24.4121C42.93 24.6252 43.0366 24.8904 43.0366 25.2078C43.0366 25.5203 42.93 25.7856 42.7169 26.0034C42.5038 26.2165 42.2338 26.3231 41.9071 26.3231ZM50.1052 32.9725V31.0047H45.0897V29.5057C45.3596 29.0463 45.6296 28.5846 45.8996 28.1204C46.1742 27.6563 46.4513 27.1945 46.7307 26.7351C47.0149 26.271 47.2967 25.814 47.5761 25.364C47.8603 24.9094 48.1421 24.4618 48.4215 24.0214C48.7057 23.5762 48.9898 23.1428 49.274 22.7213H51.8528V29.4915H53.2381V31.0047H51.8528V32.9725H50.1052ZM46.7947 29.5341H50.1336V24.1848H50.027C49.8187 24.5068 49.6032 24.8383 49.3806 25.1793C49.1627 25.5203 48.9425 25.8684 48.7199 26.2236C48.4973 26.5788 48.2771 26.9364 48.0592 27.2964C47.8413 27.6516 47.6259 28.0091 47.4127 28.3691C47.1996 28.7243 46.9936 29.0771 46.7947 29.4276V29.5341ZM57.4792 32.9725V24.5258H57.3514L54.801 26.3231V24.6039L57.4792 22.7213H59.305V32.9725H57.4792Z" fill="black"/>
<path fill-rule="evenodd" clip-rule="evenodd" d="M263.482 23.1359C263.482 22.5941 263.073 22.1549 262.569 22.1549H261.656C261.152 22.1549 260.743 22.5941 260.743 23.1359V31.6377C260.743 32.1795 261.152 32.6187 261.656 32.6187H262.569C263.073 32.6187 263.482 32.1795 263.482 31.6377V23.1359ZM257.119 24.2477H258.032C258.537 24.2477 258.945 24.6974 258.945 25.2522V31.6142C258.945 32.169 258.537 32.6187 258.032 32.6187H257.119C256.615 32.6187 256.207 32.169 256.207 31.6142V25.2522C256.207 24.6974 256.615 24.2477 257.119 24.2477ZM253.412 26.5148H252.499C251.995 26.5148 251.586 26.9703 251.586 27.5321V31.6014C251.586 32.1632 251.995 32.6187 252.499 32.6187H253.412C253.916 32.6187 254.325 32.1632 254.325 31.6014V27.5321C254.325 26.9703 253.916 26.5148 253.412 26.5148ZM248.876 28.6076H247.963C247.459 28.6076 247.05 29.0565 247.05 29.6104V31.6159C247.05 32.1697 247.459 32.6187 247.963 32.6187H248.876C249.38 32.6187 249.788 32.1697 249.788 31.6159V29.6104C249.788 29.0565 249.38 28.6076 248.876 28.6076Z" fill="black"/>
<path fill-rule="evenodd" clip-rule="evenodd" d="M276.808 24.2221C278.937 24.2221 280.984 25.0113 282.527 26.4264C282.643 26.5357 282.828 26.5343 282.943 26.4233L284.053 25.342C284.111 25.2857 284.144 25.2095 284.143 25.1302C284.143 25.0508 284.109 24.975 284.051 24.9194C280.002 21.1753 273.614 21.1753 269.565 24.9194C269.506 24.9749 269.473 25.0508 269.473 25.1301C269.472 25.2094 269.504 25.2857 269.562 25.342L270.673 26.4233C270.787 26.5344 270.973 26.5358 271.089 26.4264C272.632 25.0112 274.68 24.2221 276.808 24.2221ZM276.805 27.8339C277.967 27.8338 279.087 28.2718 279.948 29.0627C280.065 29.175 280.248 29.1725 280.362 29.0572L281.463 27.9281C281.521 27.8689 281.554 27.7886 281.553 27.7051C281.552 27.6216 281.518 27.5419 281.459 27.4839C278.837 25.0098 274.776 25.0098 272.154 27.4839C272.095 27.5419 272.061 27.6216 272.06 27.7051C272.059 27.7886 272.092 27.869 272.15 27.9281L273.251 29.0572C273.365 29.1725 273.548 29.175 273.665 29.0627C274.525 28.2723 275.645 27.8344 276.805 27.8339ZM278.966 30.2247C278.968 30.3149 278.936 30.4018 278.878 30.465L277.015 32.5658C276.961 32.6276 276.886 32.6623 276.809 32.6623C276.731 32.6623 276.656 32.6276 276.602 32.5658L274.739 30.465C274.681 30.4018 274.649 30.3148 274.651 30.2247C274.653 30.1345 274.688 30.0491 274.748 29.9887C275.937 28.8642 277.68 28.8642 278.87 29.9887C278.929 30.0492 278.964 30.1346 278.966 30.2247Z" fill="black"/>
<rect opacity="0.35" x="290.562" y="22.2518" width="20.54" height="10.27" rx="3.25217" stroke="black" stroke-width="0.855835"/>
<path opacity="0.4" d="M312.386 25.9156V29.4036C313.074 29.1082 313.522 28.421 313.522 27.6596C313.522 26.8983 313.074 26.2111 312.386 25.9156" fill="black"/>
<rect x="291.846" y="23.5355" width="17.9725" height="7.70252" rx="2.13959" fill="black"/>
</svg>
